# Blender 4.4.3
# www.blender.org
o Cube.005
v -2.000000 0.000000 -0.800000
v -2.000000 2.000000 -0.800000
v -2.000000 0.000000 -1.000000
v -2.000000 2.000000 -1.000000
v -1.800000 0.000000 -0.800000
v -1.800000 2.000000 -0.800000
v -1.800000 0.000000 -1.000000
v -1.800000 2.000000 -1.000000
v -2.000000 2.000000 1.000000
v -2.000000 2.200000 1.000000
v -2.000000 2.000000 -1.000000
v -2.000000 2.200000 -1.000000
v 2.000000 2.000000 1.000000
v 2.000000 2.200000 1.000000
v 2.000000 2.000000 -1.000000
v 2.000000 2.200000 -1.000000
v 1.800000 0.000000 1.000000
v 1.800000 2.000000 1.000000
v 1.800000 0.000000 0.800000
v 1.800000 2.000000 0.800000
v 2.000000 0.000000 1.000000
v 2.000000 2.000000 1.000000
v 2.000000 0.000000 0.800000
v 2.000000 2.000000 0.800000
v -2.000000 0.000000 1.000000
v -2.000000 2.000000 1.000000
v -2.000000 0.000000 0.800000
v -2.000000 2.000000 0.800000
v -1.800000 0.000000 1.000000
v -1.800000 2.000000 1.000000
v -1.800000 0.000000 0.800000
v -1.800000 2.000000 0.800000
v 1.800000 0.000000 -0.800000
v 1.800000 2.000000 -0.800000
v 1.800000 0.000000 -1.000000
v 1.800000 2.000000 -1.000000
v 2.000000 0.000000 -0.800000
v 2.000000 2.000000 -0.800000
v 2.000000 0.000000 -1.000000
v 2.000000 2.000000 -1.000000
vn -1.0000 -0.0000 -0.0000
vn -0.0000 -0.0000 -1.0000
vn 1.0000 -0.0000 -0.0000
vn -0.0000 -0.0000 1.0000
vn -0.0000 -1.0000 -0.0000
vn -0.0000 1.0000 -0.0000
vt 0.625000 0.000000
vt 0.375000 0.250000
vt 0.375000 0.000000
vt 0.625000 0.250000
vt 0.375000 0.500000
vt 0.625000 0.500000
vt 0.375000 0.750000
vt 0.625000 0.750000
vt 0.375000 1.000000
vt 0.125000 0.750000
vt 0.125000 0.500000
vt 0.875000 0.500000
vt 0.625000 1.000000
vt 0.875000 0.750000
s 0
f 2/1/1 3/2/1 1/3/1
f 4/4/2 7/5/2 3/2/2
f 8/6/3 5/7/3 7/5/3
f 6/8/4 1/9/4 5/7/4
f 7/5/5 1/10/5 3/11/5
f 4/12/6 6/8/6 8/6/6
f 10/1/1 11/2/1 9/3/1
f 12/4/2 15/5/2 11/2/2
f 16/6/3 13/7/3 15/5/3
f 14/8/4 9/9/4 13/7/4
f 15/5/5 9/10/5 11/11/5
f 12/12/6 14/8/6 16/6/6
f 18/1/1 19/2/1 17/3/1
f 20/4/2 23/5/2 19/2/2
f 24/6/3 21/7/3 23/5/3
f 22/8/4 17/9/4 21/7/4
f 23/5/5 17/10/5 19/11/5
f 20/12/6 22/8/6 24/6/6
f 26/1/1 27/2/1 25/3/1
f 28/4/2 31/5/2 27/2/2
f 32/6/3 29/7/3 31/5/3
f 30/8/4 25/9/4 29/7/4
f 31/5/5 25/10/5 27/11/5
f 28/12/6 30/8/6 32/6/6
f 34/1/1 35/2/1 33/3/1
f 36/4/2 39/5/2 35/2/2
f 40/6/3 37/7/3 39/5/3
f 38/8/4 33/9/4 37/7/4
f 39/5/5 33/10/5 35/11/5
f 36/12/6 38/8/6 40/6/6
f 2/1/1 4/4/1 3/2/1
f 4/4/2 8/6/2 7/5/2
f 8/6/3 6/8/3 5/7/3
f 6/8/4 2/13/4 1/9/4
f 7/5/5 5/7/5 1/10/5
f 4/12/6 2/14/6 6/8/6
f 10/1/1 12/4/1 11/2/1
f 12/4/2 16/6/2 15/5/2
f 16/6/3 14/8/3 13/7/3
f 14/8/4 10/13/4 9/9/4
f 15/5/5 13/7/5 9/10/5
f 12/12/6 10/14/6 14/8/6
f 18/1/1 20/4/1 19/2/1
f 20/4/2 24/6/2 23/5/2
f 24/6/3 22/8/3 21/7/3
f 22/8/4 18/13/4 17/9/4
f 23/5/5 21/7/5 17/10/5
f 20/12/6 18/14/6 22/8/6
f 26/1/1 28/4/1 27/2/1
f 28/4/2 32/6/2 31/5/2
f 32/6/3 30/8/3 29/7/3
f 30/8/4 26/13/4 25/9/4
f 31/5/5 29/7/5 25/10/5
f 28/12/6 26/14/6 30/8/6
f 34/1/1 36/4/1 35/2/1
f 36/4/2 40/6/2 39/5/2
f 40/6/3 38/8/3 37/7/3
f 38/8/4 34/13/4 33/9/4
f 39/5/5 37/7/5 33/10/5
f 36/12/6 34/14/6 38/8/6
o Cube.004
v -0.500000 1.500000 1.380000
v -0.500000 2.000000 1.380000
v -0.500000 1.500000 1.420000
v -0.500000 2.000000 1.420000
v -1.500000 1.500000 1.380000
v -1.500000 2.000000 1.380000
v -1.500000 1.500000 1.420000
v -1.500000 2.000000 1.420000
v -0.500000 0.900000 0.500000
v -0.500000 1.100000 0.500000
v -0.500000 0.900000 1.500000
v -0.500000 1.100000 1.500000
v -1.500000 0.900000 0.500000
v -1.500000 1.100000 0.500000
v -1.500000 0.900000 1.500000
v -1.500000 1.100000 1.500000
v -0.500000 0.000000 1.300000
v -0.500000 0.900000 1.300000
v -0.500000 0.000000 1.500000
v -0.500000 0.900000 1.500000
v -0.700000 0.000000 1.300000
v -0.700000 0.900000 1.300000
v -0.700000 0.000000 1.500000
v -0.700000 0.900000 1.500000
v -1.300000 0.000000 1.300000
v -1.300000 0.900000 1.300000
v -1.300000 0.000000 1.500000
v -1.300000 0.900000 1.500000
v -1.500000 0.000000 1.300000
v -1.500000 0.900000 1.300000
v -1.500000 0.000000 1.500000
v -1.500000 0.900000 1.500000
v -1.300000 0.000000 0.500000
v -1.300000 0.900000 0.500000
v -1.300000 0.000000 0.700000
v -1.300000 0.900000 0.700000
v -1.500000 0.000000 0.500000
v -1.500000 0.900000 0.500000
v -1.500000 0.000000 0.700000
v -1.500000 0.900000 0.700000
v -0.500000 0.000000 0.500000
v -0.500000 0.900000 0.500000
v -0.500000 0.000000 0.700000
v -0.500000 0.900000 0.700000
v -0.700000 0.000000 0.500000
v -0.700000 0.900000 0.500000
v -0.700000 0.000000 0.700000
v -0.700000 0.900000 0.700000
v -0.500000 1.100000 1.300000
v -0.500000 2.100000 1.300000
v -0.500000 1.100000 1.500000
v -0.500000 2.100000 1.500000
v -0.700000 1.100000 1.300000
v -0.700000 2.100000 1.300000
v -0.700000 1.100000 1.500000
v -0.700000 2.100000 1.500000
v -1.300000 1.100000 1.300000
v -1.300000 2.100000 1.300000
v -1.300000 1.100000 1.500000
v -1.300000 2.100000 1.500000
v -1.500000 1.100000 1.300000
v -1.500000 2.100000 1.300000
v -1.500000 1.100000 1.500000
v -1.500000 2.100000 1.500000
vn 1.0000 -0.0000 -0.0000
vn -0.0000 -0.0000 1.0000
vn -1.0000 -0.0000 -0.0000
vn -0.0000 -0.0000 -1.0000
vn -0.0000 -1.0000 -0.0000
vn -0.0000 1.0000 -0.0000
vt 0.264000 0.440000
vt 0.304000 0.400000
vt 0.304000 0.440000
vt 0.264000 0.480000
vt 0.304000 0.480000
vt 0.264000 0.520000
vt 0.304000 0.520000
vt 0.264000 0.560000
vt 0.304000 0.560000
vt 0.304000 0.600000
vt 0.304000 0.640000
vt 0.264000 0.600000
vt 0.080000 1.000000
vt 0.096000 0.000000
vt 0.096000 1.000000
vt 0.352000 0.240000
vt 0.368000 0.200000
vt 0.368000 0.240000
vt 0.096000 1.000000
vt 0.112000 0.000000
vt 0.112000 1.000000
vt 0.352000 0.280000
vt 0.368000 0.280000
vt 0.000000 1.000000
vt 0.040000 0.000000
vt 0.040000 1.000000
vt 0.080000 0.000000
vt 0.112000 1.000000
vt 0.184000 0.800000
vt 0.184000 1.000000
vt 0.352000 0.600000
vt 0.360000 0.672000
vt 0.352000 0.672000
vt 0.192000 0.200000
vt 0.264000 0.000000
vt 0.264000 0.200000
vt 0.352000 0.672000
vt 0.360000 0.744000
vt 0.352000 0.744000
vt 0.264000 0.840000
vt 0.272000 0.640000
vt 0.272000 0.840000
vt 0.336000 0.200000
vt 0.344000 0.000000
vt 0.344000 0.200000
vt 0.192000 0.400000
vt 0.264000 0.200000
vt 0.264000 0.400000
vt 0.360000 0.816000
vt 0.352000 0.816000
vt 0.192000 0.600000
vt 0.264000 0.600000
vt 0.352000 0.816000
vt 0.360000 0.888000
vt 0.352000 0.888000
vt 0.336000 0.400000
vt 0.344000 0.400000
vt 0.336000 0.600000
vt 0.344000 0.400000
vt 0.344000 0.600000
vt 0.192000 0.800000
vt 0.264000 0.800000
vt 0.352000 0.888000
vt 0.360000 0.960000
vt 0.352000 0.960000
vt 0.192000 1.000000
vt 0.264000 1.000000
vt 0.368000 0.000000
vt 0.376000 0.072000
vt 0.368000 0.072000
vt 0.336000 0.800000
vt 0.344000 0.600000
vt 0.344000 0.800000
vt 0.336000 1.000000
vt 0.344000 0.800000
vt 0.344000 1.000000
vt 0.336000 0.000000
vt 0.336000 0.200000
vt 0.376000 0.144000
vt 0.368000 0.144000
vt 0.264000 0.400000
vt 0.336000 0.400000
vt 0.368000 0.144000
vt 0.376000 0.216000
vt 0.368000 0.216000
vt 0.352000 0.000000
vt 0.352000 0.200000
vt 0.344000 0.400000
vt 0.352000 0.200000
vt 0.352000 0.400000
vt 0.112000 0.200000
vt 0.192000 0.000000
vt 0.192000 0.200000
vt 0.352000 0.280000
vt 0.360000 0.360000
vt 0.352000 0.360000
vt 0.112000 0.400000
vt 0.192000 0.200000
vt 0.192000 0.400000
vt 0.352000 0.360000
vt 0.360000 0.440000
vt 0.352000 0.440000
vt 0.352000 0.400000
vt 0.352000 0.600000
vt 0.344000 0.800000
vt 0.352000 0.600000
vt 0.352000 0.800000
vt 0.112000 0.600000
vt 0.192000 0.400000
vt 0.360000 0.520000
vt 0.352000 0.520000
vt 0.112000 0.800000
vt 0.192000 0.600000
vt 0.352000 0.520000
vt 0.360000 0.600000
vt 0.344000 1.000000
vt 0.352000 1.000000
vt 0.360000 0.000000
vt 0.360000 0.200000
vt 0.264000 0.400000
vt 0.264000 0.640000
vt 0.080000 0.000000
vt 0.352000 0.200000
vt 0.096000 0.000000
vt 0.000000 0.000000
vt 0.112000 0.800000
vt 0.192000 -0.000000
vt 0.360000 0.672000
vt 0.336000 0.000000
vt 0.192000 0.200000
vt 0.360000 0.816000
vt 0.336000 0.400000
vt 0.192000 0.600000
vt 0.360000 0.888000
vt 0.192000 0.800000
vt 0.376000 0.000000
vt 0.336000 0.600000
vt 0.336000 0.800000
vt 0.264000 0.000000
vt 0.264000 0.200000
vt 0.376000 0.144000
vt 0.344000 0.200000
vt 0.112000 -0.000000
vt 0.360000 0.280000
vt 0.112000 0.200000
vt 0.360000 0.360000
vt 0.344000 0.600000
vt 0.112000 0.400000
vt 0.112000 0.600000
vt 0.360000 0.520000
vt 0.352000 0.000000
s 0
f 42/15/7 43/16/7 41/17/7
f 44/18/8 47/17/8 43/19/8
f 48/20/9 45/19/9 47/21/9
f 46/22/10 41/21/10 45/23/10
f 47/24/11 41/22/11 43/23/11
f 44/25/12 46/26/12 48/24/12
f 50/27/7 51/28/7 49/29/7
f 52/30/8 55/31/8 51/32/8
f 56/33/9 53/34/9 55/35/9
f 54/36/10 49/32/10 53/37/10
f 55/38/11 49/39/11 51/40/11
f 52/40/12 54/41/12 56/27/12
f 58/42/7 59/43/7 57/44/7
f 60/45/8 63/46/8 59/47/8
f 64/48/9 61/49/9 63/50/9
f 62/51/10 57/52/10 61/53/10
f 63/54/11 57/55/11 59/56/11
f 60/57/12 62/58/12 64/59/12
f 66/60/7 67/61/7 65/62/7
f 68/53/8 71/63/8 67/64/8
f 72/65/9 69/62/9 71/66/9
f 70/67/10 65/68/10 69/69/10
f 71/70/11 65/59/11 67/71/11
f 68/72/12 70/73/12 72/74/12
f 74/75/7 75/66/7 73/76/7
f 76/77/8 79/78/8 75/79/8
f 80/80/9 77/76/9 79/81/9
f 78/82/10 73/83/10 77/84/10
f 79/85/11 73/86/11 75/87/11
f 76/88/12 78/89/12 80/90/12
f 82/61/7 83/91/7 81/92/7
f 84/84/8 87/93/8 83/94/8
f 88/95/9 85/92/9 87/96/9
f 86/97/10 81/98/10 85/99/10
f 87/59/11 81/100/11 83/101/11
f 84/102/12 86/103/12 88/104/12
f 90/105/7 91/106/7 89/107/7
f 92/108/8 95/109/8 91/110/8
f 96/111/9 93/112/9 95/113/9
f 94/114/10 89/115/10 93/116/10
f 95/86/11 89/117/11 91/118/11
f 92/119/12 94/120/12 96/121/12
f 98/122/7 99/123/7 97/65/7
f 100/116/8 103/124/8 99/125/8
f 104/126/9 101/127/9 103/75/9
f 102/128/10 97/129/10 101/45/10
f 103/130/11 97/121/11 99/131/11
f 100/103/12 102/132/12 104/133/12
f 42/15/7 44/134/7 43/16/7
f 44/18/8 48/15/8 47/17/8
f 48/20/9 46/18/9 45/19/9
f 46/22/10 42/20/10 41/21/10
f 47/24/11 45/26/11 41/22/11
f 44/25/12 42/135/12 46/26/12
f 50/27/7 52/136/7 51/28/7
f 52/30/8 56/137/8 55/31/8
f 56/33/9 54/138/9 53/34/9
f 54/36/10 50/30/10 49/32/10
f 55/38/11 53/139/11 49/39/11
f 52/40/12 50/39/12 54/41/12
f 58/42/7 60/140/7 59/43/7
f 60/45/8 64/129/8 63/46/8
f 64/48/9 62/141/9 61/49/9
f 62/51/10 58/142/10 57/52/10
f 63/54/11 61/135/11 57/55/11
f 60/57/12 58/143/12 62/58/12
f 66/60/7 68/144/7 67/61/7
f 68/53/8 72/52/8 71/63/8
f 72/65/9 70/123/9 69/62/9
f 70/67/10 66/145/10 65/68/10
f 71/70/11 69/57/11 65/59/11
f 68/72/12 66/146/12 70/73/12
f 74/75/7 76/147/7 75/66/7
f 76/77/8 80/148/8 79/78/8
f 80/80/9 78/149/9 77/76/9
f 78/82/10 74/150/10 73/83/10
f 79/85/11 77/151/11 73/86/11
f 76/88/12 74/152/12 78/89/12
f 82/61/7 84/153/7 83/91/7
f 84/84/8 88/83/8 87/93/8
f 88/95/9 86/154/9 85/92/9
f 86/97/10 82/155/10 81/98/10
f 87/59/11 85/58/11 81/100/11
f 84/102/12 82/156/12 86/103/12
f 90/105/7 92/157/7 91/106/7
f 92/108/8 96/158/8 95/109/8
f 96/111/9 94/159/9 93/112/9
f 94/114/10 90/160/10 89/115/10
f 95/86/11 93/71/11 89/117/11
f 92/119/12 90/161/12 94/120/12
f 98/122/7 100/162/7 99/123/7
f 100/116/8 104/115/8 103/124/8
f 104/126/9 102/163/9 101/127/9
f 102/128/10 98/164/10 97/129/10
f 103/130/11 101/119/11 97/121/11
f 100/103/12 98/165/12 102/132/12
o Cube.001
v 0.500000 1.500000 -1.380000
v 0.500000 2.000000 -1.380000
v 0.500000 1.500000 -1.420000
v 0.500000 2.000000 -1.420000
v 1.500000 1.500000 -1.380000
v 1.500000 2.000000 -1.380000
v 1.500000 1.500000 -1.420000
v 1.500000 2.000000 -1.420000
v 0.500000 0.900000 -0.500000
v 0.500000 1.100000 -0.500000
v 0.500000 0.900000 -1.500000
v 0.500000 1.100000 -1.500000
v 1.500000 0.900000 -0.500000
v 1.500000 1.100000 -0.500000
v 1.500000 0.900000 -1.500000
v 1.500000 1.100000 -1.500000
v 0.500000 0.000000 -1.300000
v 0.500000 0.900000 -1.300000
v 0.500000 0.000000 -1.500000
v 0.500000 0.900000 -1.500000
v 0.700000 0.000000 -1.300000
v 0.700000 0.900000 -1.300000
v 0.700000 0.000000 -1.500000
v 0.700000 0.900000 -1.500000
v 1.300000 0.000000 -1.300000
v 1.300000 0.900000 -1.300000
v 1.300000 0.000000 -1.500000
v 1.300000 0.900000 -1.500000
v 1.500000 0.000000 -1.300000
v 1.500000 0.900000 -1.300000
v 1.500000 0.000000 -1.500000
v 1.500000 0.900000 -1.500000
v 1.300000 0.000000 -0.500000
v 1.300000 0.900000 -0.500000
v 1.300000 0.000000 -0.700000
v 1.300000 0.900000 -0.700000
v 1.500000 0.000000 -0.500000
v 1.500000 0.900000 -0.500000
v 1.500000 0.000000 -0.700000
v 1.500000 0.900000 -0.700000
v 0.500000 0.000000 -0.500000
v 0.500000 0.900000 -0.500000
v 0.500000 0.000000 -0.700000
v 0.500000 0.900000 -0.700000
v 0.700000 0.000000 -0.500000
v 0.700000 0.900000 -0.500000
v 0.700000 0.000000 -0.700000
v 0.700000 0.900000 -0.700000
v 0.500000 1.100000 -1.300000
v 0.500000 2.100000 -1.300000
v 0.500000 1.100000 -1.500000
v 0.500000 2.100000 -1.500000
v 0.700000 1.100000 -1.300000
v 0.700000 2.100000 -1.300000
v 0.700000 1.100000 -1.500000
v 0.700000 2.100000 -1.500000
v 1.300000 1.100000 -1.300000
v 1.300000 2.100000 -1.300000
v 1.300000 1.100000 -1.500000
v 1.300000 2.100000 -1.500000
v 1.500000 1.100000 -1.300000
v 1.500000 2.100000 -1.300000
v 1.500000 1.100000 -1.500000
v 1.500000 2.100000 -1.500000
vn -1.0000 -0.0000 -0.0000
vn -0.0000 -0.0000 -1.0000
vn 1.0000 -0.0000 -0.0000
vn -0.0000 -0.0000 1.0000
vn -0.0000 -1.0000 -0.0000
vn -0.0000 1.0000 -0.0000
vt 0.625000 0.000000
vt 0.375000 0.250000
vt 0.375000 0.000000
vt 0.625000 0.250000
vt 0.375000 0.500000
vt 0.625000 0.500000
vt 0.375000 0.750000
vt 0.625000 0.750000
vt 0.375000 1.000000
vt 0.125000 0.750000
vt 0.125000 0.500000
vt 0.875000 0.500000
vt 0.625000 1.000000
vt 0.875000 0.750000
s 0
f 106/166/13 107/167/13 105/168/13
f 108/169/14 111/170/14 107/167/14
f 112/171/15 109/172/15 111/170/15
f 110/173/16 105/174/16 109/172/16
f 111/170/17 105/175/17 107/176/17
f 108/177/18 110/173/18 112/171/18
f 114/166/13 115/167/13 113/168/13
f 116/169/14 119/170/14 115/167/14
f 120/171/15 117/172/15 119/170/15
f 118/173/16 113/174/16 117/172/16
f 119/170/17 113/175/17 115/176/17
f 116/177/18 118/173/18 120/171/18
f 122/166/13 123/167/13 121/168/13
f 124/169/14 127/170/14 123/167/14
f 128/171/15 125/172/15 127/170/15
f 126/173/16 121/174/16 125/172/16
f 127/170/17 121/175/17 123/176/17
f 124/177/18 126/173/18 128/171/18
f 130/166/13 131/167/13 129/168/13
f 132/169/14 135/170/14 131/167/14
f 136/171/15 133/172/15 135/170/15
f 134/173/16 129/174/16 133/172/16
f 135/170/17 129/175/17 131/176/17
f 132/177/18 134/173/18 136/171/18
f 138/166/13 139/167/13 137/168/13
f 140/169/14 143/170/14 139/167/14
f 144/171/15 141/172/15 143/170/15
f 142/173/16 137/174/16 141/172/16
f 143/170/17 137/175/17 139/176/17
f 140/177/18 142/173/18 144/171/18
f 146/166/13 147/167/13 145/168/13
f 148/169/14 151/170/14 147/167/14
f 152/171/15 149/172/15 151/170/15
f 150/173/16 145/174/16 149/172/16
f 151/170/17 145/175/17 147/176/17
f 148/177/18 150/173/18 152/171/18
f 154/166/13 155/167/13 153/168/13
f 156/169/14 159/170/14 155/167/14
f 160/171/15 157/172/15 159/170/15
f 158/173/16 153/174/16 157/172/16
f 159/170/17 153/175/17 155/176/17
f 156/177/18 158/173/18 160/171/18
f 162/166/13 163/167/13 161/168/13
f 164/169/14 167/170/14 163/167/14
f 168/171/15 165/172/15 167/170/15
f 166/173/16 161/174/16 165/172/16
f 167/170/17 161/175/17 163/176/17
f 164/177/18 166/173/18 168/171/18
f 106/166/13 108/169/13 107/167/13
f 108/169/14 112/171/14 111/170/14
f 112/171/15 110/173/15 109/172/15
f 110/173/16 106/178/16 105/174/16
f 111/170/17 109/172/17 105/175/17
f 108/177/18 106/179/18 110/173/18
f 114/166/13 116/169/13 115/167/13
f 116/169/14 120/171/14 119/170/14
f 120/171/15 118/173/15 117/172/15
f 118/173/16 114/178/16 113/174/16
f 119/170/17 117/172/17 113/175/17
f 116/177/18 114/179/18 118/173/18
f 122/166/13 124/169/13 123/167/13
f 124/169/14 128/171/14 127/170/14
f 128/171/15 126/173/15 125/172/15
f 126/173/16 122/178/16 121/174/16
f 127/170/17 125/172/17 121/175/17
f 124/177/18 122/179/18 126/173/18
f 130/166/13 132/169/13 131/167/13
f 132/169/14 136/171/14 135/170/14
f 136/171/15 134/173/15 133/172/15
f 134/173/16 130/178/16 129/174/16
f 135/170/17 133/172/17 129/175/17
f 132/177/18 130/179/18 134/173/18
f 138/166/13 140/169/13 139/167/13
f 140/169/14 144/171/14 143/170/14
f 144/171/15 142/173/15 141/172/15
f 142/173/16 138/178/16 137/174/16
f 143/170/17 141/172/17 137/175/17
f 140/177/18 138/179/18 142/173/18
f 146/166/13 148/169/13 147/167/13
f 148/169/14 152/171/14 151/170/14
f 152/171/15 150/173/15 149/172/15
f 150/173/16 146/178/16 145/174/16
f 151/170/17 149/172/17 145/175/17
f 148/177/18 146/179/18 150/173/18
f 154/166/13 156/169/13 155/167/13
f 156/169/14 160/171/14 159/170/14
f 160/171/15 158/173/15 157/172/15
f 158/173/16 154/178/16 153/174/16
f 159/170/17 157/172/17 153/175/17
f 156/177/18 154/179/18 158/173/18
f 162/166/13 164/169/13 163/167/13
f 164/169/14 168/171/14 167/170/14
f 168/171/15 166/173/15 165/172/15
f 166/173/16 162/178/16 161/174/16
f 167/170/17 165/172/17 161/175/17
f 164/177/18 162/179/18 166/173/18
o Cube.002
v -1.500000 1.500000 -1.380000
v -1.500000 2.000000 -1.380000
v -1.500000 1.500000 -1.420000
v -1.500000 2.000000 -1.420000
v -0.500000 1.500000 -1.380000
v -0.500000 2.000000 -1.380000
v -0.500000 1.500000 -1.420000
v -0.500000 2.000000 -1.420000
v -1.500000 0.900000 -0.500000
v -1.500000 1.100000 -0.500000
v -1.500000 0.900000 -1.500000
v -1.500000 1.100000 -1.500000
v -0.500000 0.900000 -0.500000
v -0.500000 1.100000 -0.500000
v -0.500000 0.900000 -1.500000
v -0.500000 1.100000 -1.500000
v -1.500000 0.000000 -1.300000
v -1.500000 0.900000 -1.300000
v -1.500000 0.000000 -1.500000
v -1.500000 0.900000 -1.500000
v -1.300000 0.000000 -1.300000
v -1.300000 0.900000 -1.300000
v -1.300000 0.000000 -1.500000
v -1.300000 0.900000 -1.500000
v -0.700000 0.000000 -1.300000
v -0.700000 0.900000 -1.300000
v -0.700000 0.000000 -1.500000
v -0.700000 0.900000 -1.500000
v -0.500000 0.000000 -1.300000
v -0.500000 0.900000 -1.300000
v -0.500000 0.000000 -1.500000
v -0.500000 0.900000 -1.500000
v -0.700000 0.000000 -0.500000
v -0.700000 0.900000 -0.500000
v -0.700000 0.000000 -0.700000
v -0.700000 0.900000 -0.700000
v -0.500000 0.000000 -0.500000
v -0.500000 0.900000 -0.500000
v -0.500000 0.000000 -0.700000
v -0.500000 0.900000 -0.700000
v -1.500000 0.000000 -0.500000
v -1.500000 0.900000 -0.500000
v -1.500000 0.000000 -0.700000
v -1.500000 0.900000 -0.700000
v -1.300000 0.000000 -0.500000
v -1.300000 0.900000 -0.500000
v -1.300000 0.000000 -0.700000
v -1.300000 0.900000 -0.700000
v -1.500000 1.100000 -1.300000
v -1.500000 2.100000 -1.300000
v -1.500000 1.100000 -1.500000
v -1.500000 2.100000 -1.500000
v -1.300000 1.100000 -1.300000
v -1.300000 2.100000 -1.300000
v -1.300000 1.100000 -1.500000
v -1.300000 2.100000 -1.500000
v -0.700000 1.100000 -1.300000
v -0.700000 2.100000 -1.300000
v -0.700000 1.100000 -1.500000
v -0.700000 2.100000 -1.500000
v -0.500000 1.100000 -1.300000
v -0.500000 2.100000 -1.300000
v -0.500000 1.100000 -1.500000
v -0.500000 2.100000 -1.500000
vn -1.0000 -0.0000 -0.0000
vn -0.0000 -0.0000 -1.0000
vn 1.0000 -0.0000 -0.0000
vn -0.0000 -0.0000 1.0000
vn -0.0000 -1.0000 -0.0000
vn -0.0000 1.0000 -0.0000
vt 0.625000 0.000000
vt 0.375000 0.250000
vt 0.375000 0.000000
vt 0.625000 0.250000
vt 0.375000 0.500000
vt 0.625000 0.500000
vt 0.375000 0.750000
vt 0.625000 0.750000
vt 0.375000 1.000000
vt 0.125000 0.750000
vt 0.125000 0.500000
vt 0.875000 0.500000
vt 0.625000 1.000000
vt 0.875000 0.750000
s 0
f 170/180/19 171/181/19 169/182/19
f 172/183/20 175/184/20 171/181/20
f 176/185/21 173/186/21 175/184/21
f 174/187/22 169/188/22 173/186/22
f 175/184/23 169/189/23 171/190/23
f 172/191/24 174/187/24 176/185/24
f 178/180/19 179/181/19 177/182/19
f 180/183/20 183/184/20 179/181/20
f 184/185/21 181/186/21 183/184/21
f 182/187/22 177/188/22 181/186/22
f 183/184/23 177/189/23 179/190/23
f 180/191/24 182/187/24 184/185/24
f 186/180/19 187/181/19 185/182/19
f 188/183/20 191/184/20 187/181/20
f 192/185/21 189/186/21 191/184/21
f 190/187/22 185/188/22 189/186/22
f 191/184/23 185/189/23 187/190/23
f 188/191/24 190/187/24 192/185/24
f 194/180/19 195/181/19 193/182/19
f 196/183/20 199/184/20 195/181/20
f 200/185/21 197/186/21 199/184/21
f 198/187/22 193/188/22 197/186/22
f 199/184/23 193/189/23 195/190/23
f 196/191/24 198/187/24 200/185/24
f 202/180/19 203/181/19 201/182/19
f 204/183/20 207/184/20 203/181/20
f 208/185/21 205/186/21 207/184/21
f 206/187/22 201/188/22 205/186/22
f 207/184/23 201/189/23 203/190/23
f 204/191/24 206/187/24 208/185/24
f 210/180/19 211/181/19 209/182/19
f 212/183/20 215/184/20 211/181/20
f 216/185/21 213/186/21 215/184/21
f 214/187/22 209/188/22 213/186/22
f 215/184/23 209/189/23 211/190/23
f 212/191/24 214/187/24 216/185/24
f 218/180/19 219/181/19 217/182/19
f 220/183/20 223/184/20 219/181/20
f 224/185/21 221/186/21 223/184/21
f 222/187/22 217/188/22 221/186/22
f 223/184/23 217/189/23 219/190/23
f 220/191/24 222/187/24 224/185/24
f 226/180/19 227/181/19 225/182/19
f 228/183/20 231/184/20 227/181/20
f 232/185/21 229/186/21 231/184/21
f 230/187/22 225/188/22 229/186/22
f 231/184/23 225/189/23 227/190/23
f 228/191/24 230/187/24 232/185/24
f 170/180/19 172/183/19 171/181/19
f 172/183/20 176/185/20 175/184/20
f 176/185/21 174/187/21 173/186/21
f 174/187/22 170/192/22 169/188/22
f 175/184/23 173/186/23 169/189/23
f 172/191/24 170/193/24 174/187/24
f 178/180/19 180/183/19 179/181/19
f 180/183/20 184/185/20 183/184/20
f 184/185/21 182/187/21 181/186/21
f 182/187/22 178/192/22 177/188/22
f 183/184/23 181/186/23 177/189/23
f 180/191/24 178/193/24 182/187/24
f 186/180/19 188/183/19 187/181/19
f 188/183/20 192/185/20 191/184/20
f 192/185/21 190/187/21 189/186/21
f 190/187/22 186/192/22 185/188/22
f 191/184/23 189/186/23 185/189/23
f 188/191/24 186/193/24 190/187/24
f 194/180/19 196/183/19 195/181/19
f 196/183/20 200/185/20 199/184/20
f 200/185/21 198/187/21 197/186/21
f 198/187/22 194/192/22 193/188/22
f 199/184/23 197/186/23 193/189/23
f 196/191/24 194/193/24 198/187/24
f 202/180/19 204/183/19 203/181/19
f 204/183/20 208/185/20 207/184/20
f 208/185/21 206/187/21 205/186/21
f 206/187/22 202/192/22 201/188/22
f 207/184/23 205/186/23 201/189/23
f 204/191/24 202/193/24 206/187/24
f 210/180/19 212/183/19 211/181/19
f 212/183/20 216/185/20 215/184/20
f 216/185/21 214/187/21 213/186/21
f 214/187/22 210/192/22 209/188/22
f 215/184/23 213/186/23 209/189/23
f 212/191/24 210/193/24 214/187/24
f 218/180/19 220/183/19 219/181/19
f 220/183/20 224/185/20 223/184/20
f 224/185/21 222/187/21 221/186/21
f 222/187/22 218/192/22 217/188/22
f 223/184/23 221/186/23 217/189/23
f 220/191/24 218/193/24 222/187/24
f 226/180/19 228/183/19 227/181/19
f 228/183/20 232/185/20 231/184/20
f 232/185/21 230/187/21 229/186/21
f 230/187/22 226/192/22 225/188/22
f 231/184/23 229/186/23 225/189/23
f 228/191/24 226/193/24 230/187/24
o Cube.003
v 1.500000 1.500000 1.380000
v 1.500000 2.000000 1.380000
v 1.500000 1.500000 1.420000
v 1.500000 2.000000 1.420000
v 0.500000 1.500000 1.380000
v 0.500000 2.000000 1.380000
v 0.500000 1.500000 1.420000
v 0.500000 2.000000 1.420000
v 1.500000 0.900000 0.500000
v 1.500000 1.100000 0.500000
v 1.500000 0.900000 1.500000
v 1.500000 1.100000 1.500000
v 0.500000 0.900000 0.500000
v 0.500000 1.100000 0.500000
v 0.500000 0.900000 1.500000
v 0.500000 1.100000 1.500000
v 1.500000 0.000000 1.300000
v 1.500000 0.900000 1.300000
v 1.500000 0.000000 1.500000
v 1.500000 0.900000 1.500000
v 1.300000 0.000000 1.300000
v 1.300000 0.900000 1.300000
v 1.300000 0.000000 1.500000
v 1.300000 0.900000 1.500000
v 0.700000 0.000000 1.300000
v 0.700000 0.900000 1.300000
v 0.700000 0.000000 1.500000
v 0.700000 0.900000 1.500000
v 0.500000 0.000000 1.300000
v 0.500000 0.900000 1.300000
v 0.500000 0.000000 1.500000
v 0.500000 0.900000 1.500000
v 0.700000 0.000000 0.500000
v 0.700000 0.900000 0.500000
v 0.700000 0.000000 0.700000
v 0.700000 0.900000 0.700000
v 0.500000 0.000000 0.500000
v 0.500000 0.900000 0.500000
v 0.500000 0.000000 0.700000
v 0.500000 0.900000 0.700000
v 1.500000 0.000000 0.500000
v 1.500000 0.900000 0.500000
v 1.500000 0.000000 0.700000
v 1.500000 0.900000 0.700000
v 1.300000 0.000000 0.500000
v 1.300000 0.900000 0.500000
v 1.300000 0.000000 0.700000
v 1.300000 0.900000 0.700000
v 1.500000 1.100000 1.300000
v 1.500000 2.100000 1.300000
v 1.500000 1.100000 1.500000
v 1.500000 2.100000 1.500000
v 1.300000 1.100000 1.300000
v 1.300000 2.100000 1.300000
v 1.300000 1.100000 1.500000
v 1.300000 2.100000 1.500000
v 0.700000 1.100000 1.300000
v 0.700000 2.100000 1.300000
v 0.700000 1.100000 1.500000
v 0.700000 2.100000 1.500000
v 0.500000 1.100000 1.300000
v 0.500000 2.100000 1.300000
v 0.500000 1.100000 1.500000
v 0.500000 2.100000 1.500000
vn 1.0000 -0.0000 -0.0000
vn -0.0000 -0.0000 1.0000
vn -1.0000 -0.0000 -0.0000
vn -0.0000 -0.0000 -1.0000
vn -0.0000 -1.0000 -0.0000
vn -0.0000 1.0000 -0.0000
vt 0.625000 0.000000
vt 0.375000 0.250000
vt 0.375000 0.000000
vt 0.625000 0.250000
vt 0.375000 0.500000
vt 0.625000 0.500000
vt 0.375000 0.750000
vt 0.625000 0.750000
vt 0.375000 1.000000
vt 0.125000 0.750000
vt 0.125000 0.500000
vt 0.875000 0.500000
vt 0.625000 1.000000
vt 0.875000 0.750000
s 0
f 234/194/25 235/195/25 233/196/25
f 236/197/26 239/198/26 235/195/26
f 240/199/27 237/200/27 239/198/27
f 238/201/28 233/202/28 237/200/28
f 239/198/29 233/203/29 235/204/29
f 236/205/30 238/201/30 240/199/30
f 242/194/25 243/195/25 241/196/25
f 244/197/26 247/198/26 243/195/26
f 248/199/27 245/200/27 247/198/27
f 246/201/28 241/202/28 245/200/28
f 247/198/29 241/203/29 243/204/29
f 244/205/30 246/201/30 248/199/30
f 250/194/25 251/195/25 249/196/25
f 252/197/26 255/198/26 251/195/26
f 256/199/27 253/200/27 255/198/27
f 254/201/28 249/202/28 253/200/28
f 255/198/29 249/203/29 251/204/29
f 252/205/30 254/201/30 256/199/30
f 258/194/25 259/195/25 257/196/25
f 260/197/26 263/198/26 259/195/26
f 264/199/27 261/200/27 263/198/27
f 262/201/28 257/202/28 261/200/28
f 263/198/29 257/203/29 259/204/29
f 260/205/30 262/201/30 264/199/30
f 266/194/25 267/195/25 265/196/25
f 268/197/26 271/198/26 267/195/26
f 272/199/27 269/200/27 271/198/27
f 270/201/28 265/202/28 269/200/28
f 271/198/29 265/203/29 267/204/29
f 268/205/30 270/201/30 272/199/30
f 274/194/25 275/195/25 273/196/25
f 276/197/26 279/198/26 275/195/26
f 280/199/27 277/200/27 279/198/27
f 278/201/28 273/202/28 277/200/28
f 279/198/29 273/203/29 275/204/29
f 276/205/30 278/201/30 280/199/30
f 282/194/25 283/195/25 281/196/25
f 284/197/26 287/198/26 283/195/26
f 288/199/27 285/200/27 287/198/27
f 286/201/28 281/202/28 285/200/28
f 287/198/29 281/203/29 283/204/29
f 284/205/30 286/201/30 288/199/30
f 290/194/25 291/195/25 289/196/25
f 292/197/26 295/198/26 291/195/26
f 296/199/27 293/200/27 295/198/27
f 294/201/28 289/202/28 293/200/28
f 295/198/29 289/203/29 291/204/29
f 292/205/30 294/201/30 296/199/30
f 234/194/25 236/197/25 235/195/25
f 236/197/26 240/199/26 239/198/26
f 240/199/27 238/201/27 237/200/27
f 238/201/28 234/206/28 233/202/28
f 239/198/29 237/200/29 233/203/29
f 236/205/30 234/207/30 238/201/30
f 242/194/25 244/197/25 243/195/25
f 244/197/26 248/199/26 247/198/26
f 248/199/27 246/201/27 245/200/27
f 246/201/28 242/206/28 241/202/28
f 247/198/29 245/200/29 241/203/29
f 244/205/30 242/207/30 246/201/30
f 250/194/25 252/197/25 251/195/25
f 252/197/26 256/199/26 255/198/26
f 256/199/27 254/201/27 253/200/27
f 254/201/28 250/206/28 249/202/28
f 255/198/29 253/200/29 249/203/29
f 252/205/30 250/207/30 254/201/30
f 258/194/25 260/197/25 259/195/25
f 260/197/26 264/199/26 263/198/26
f 264/199/27 262/201/27 261/200/27
f 262/201/28 258/206/28 257/202/28
f 263/198/29 261/200/29 257/203/29
f 260/205/30 258/207/30 262/201/30
f 266/194/25 268/197/25 267/195/25
f 268/197/26 272/199/26 271/198/26
f 272/199/27 270/201/27 269/200/27
f 270/201/28 266/206/28 265/202/28
f 271/198/29 269/200/29 265/203/29
f 268/205/30 266/207/30 270/201/30
f 274/194/25 276/197/25 275/195/25
f 276/197/26 280/199/26 279/198/26
f 280/199/27 278/201/27 277/200/27
f 278/201/28 274/206/28 273/202/28
f 279/198/29 277/200/29 273/203/29
f 276/205/30 274/207/30 278/201/30
f 282/194/25 284/197/25 283/195/25
f 284/197/26 288/199/26 287/198/26
f 288/199/27 286/201/27 285/200/27
f 286/201/28 282/206/28 281/202/28
f 287/198/29 285/200/29 281/203/29
f 284/205/30 282/207/30 286/201/30
f 290/194/25 292/197/25 291/195/25
f 292/197/26 296/199/26 295/198/26
f 296/199/27 294/201/27 293/200/27
f 294/201/28 290/206/28 289/202/28
f 295/198/29 293/200/29 289/203/29
f 292/205/30 290/207/30 294/201/30
